<svg xmlns="http://www.w3.org/2000/svg" aria-hidden="true" style="position:absolute;width:0;height:0;overflow:hidden"><defs><symbol id="icon-logo" viewBox="0 0 32 32"><path d="M8.727 0h14.545a8.727 8.727 0 0 1 8.727 8.727v14.545a8.727 8.727 0 0 1-8.727 8.727H8.727A8.727 8.727 0 0 1 0 23.272V8.727A8.727 8.727 0 0 1 8.727 0z"/><path stroke-linecap="round" stroke-linejoin="round" stroke-width="1.454" d="M7.273 7.347v3.966c0 1.132.494 2.135 1.26 2.784.375.317.622.746.622 1.221v6.62c0 .736.633 1.333 1.412 1.333s1.412-.597 1.412-1.333v-6.62c0-.476.248-.904.622-1.221a3.635 3.635 0 0 0 1.26-2.784M10.567 11.717V7.273M23.273 8.208c0-.491-.422-.889-.941-.889h-.941c-1.559 0-2.823 1.194-2.823 2.667v5.333c0 1.159.788 2.136 1.882 2.503v4.117c0 .736.633 1.333 1.412 1.333s1.412-.597 1.412-1.333V8.207z"/></symbol></defs></svg>