<svg xmlns="http://www.w3.org/2000/svg" aria-hidden="true" style="position:absolute;width:0;height:0;overflow:hidden"><defs><symbol id="icon-mail" viewBox="0 0 32 32"><path stroke-linecap="round" stroke-linejoin="round" stroke-width="1.746" d="M4.364 4.363h23.273a2.92 2.92 0 0 1 2.91 2.909v17.455a2.916 2.916 0 0 1-2.91 2.909H4.364a2.916 2.916 0 0 1-2.909-2.909V7.272a2.916 2.916 0 0 1 2.909-2.909z"/><path stroke-linecap="round" stroke-linejoin="round" stroke-width="1.746" d="M30.545 7.272 16 17.454 1.455 7.272"/></symbol><symbol id="icon-facebook" viewBox="0 0 30 32"><path d="M30.476 16.092c0-8.466-6.823-15.33-15.238-15.33S0 7.626 0 16.092c0 7.651 5.571 13.994 12.857 15.145V20.525h-3.87v-4.433h3.87v-3.377c0-3.841 2.276-5.965 5.756-5.965 1.667 0 3.412.3 3.412.3v3.773h-1.922c-1.892 0-2.484 1.181-2.484 2.395v2.874h4.226l-.675 4.433h-3.55v10.713c7.286-1.15 12.857-7.493 12.857-15.146z"/></symbol><symbol id="icon-instagram" viewBox="0 0 30 32"><path d="M21.587 3.301a6.368 6.368 0 0 1 6.349 6.349v12.698a6.368 6.368 0 0 1-6.349 6.349H8.889a6.37 6.37 0 0 1-6.349-6.349V9.65a6.37 6.37 0 0 1 6.349-6.349h12.698zm0-2.539H8.889C4 .762 0 4.762 0 9.651v12.698c0 4.889 4 8.889 8.889 8.889h12.698c4.889 0 8.889-4 8.889-8.889V9.651c0-4.889-4-8.889-8.889-8.889z"/><path d="M23.492 9.654a1.905 1.905 0 1 1 .003-3.812 1.905 1.905 0 0 1-.004 3.813zm-8.254 1.269a5.079 5.079 0 1 1 .003 10.156 5.079 5.079 0 0 1-.004-10.155zm0-2.54a7.62 7.62 0 0 0-7.473 9.105 7.624 7.624 0 0 0 5.986 5.986 7.616 7.616 0 0 0 7.821-3.24 7.62 7.62 0 0 0-6.335-11.853z"/></symbol><symbol id="icon-twitter" viewBox="0 0 38 32"><path d="M37.647 4.51a15.806 15.806 0 0 1-4.435 1.2 7.647 7.647 0 0 0 3.398-4.204 15.506 15.506 0 0 1-4.907 1.843 7.771 7.771 0 0 0-5.64-2.407c-4.268 0-7.722 3.404-7.722 7.6a7.321 7.321 0 0 0 .199 1.733A22.004 22.004 0 0 1 2.619 2.33a7.496 7.496 0 0 0-1.05 3.82c0 2.635 1.375 4.965 3.451 6.329a7.646 7.646 0 0 1-3.512-.949v.094c0 3.686 2.667 6.753 6.196 7.451a7.899 7.899 0 0 1-2.034.267 7.452 7.452 0 0 1-1.452-.141c.981 3.019 3.837 5.216 7.22 5.278a15.659 15.659 0 0 1-9.594 3.255 15.992 15.992 0 0 1-1.843-.11 21.854 21.854 0 0 0 11.823 3.435c14.224 0 21.995-11.584 21.995-21.631 0-.329-.008-.659-.024-.98a15.57 15.57 0 0 0 3.853-3.937z"/></symbol><symbol id="icon-youtube" viewBox="0 0 43 32"><path d="M42.393 7.066c0-3.75-2.759-6.766-6.167-6.766C31.609.084 26.9.001 22.088.001h-1.5c-4.801 0-9.518.083-14.135.3-3.4 0-6.159 3.033-6.159 6.783a124.152 124.152 0 0 0-.292 8.899c-.008 2.967.086 5.936.283 8.908 0 3.75 2.759 6.791 6.159 6.791 4.851.225 9.826.325 14.885.317 5.067.017 10.029-.089 14.885-.317 3.409 0 6.167-3.042 6.167-6.791.2-2.975.292-5.942.284-8.916.019-2.967-.072-5.936-.272-8.908zm-25.14 17.091V7.782l12.085 8.183-12.085 8.191z"/></symbol></defs></svg>