<!-- Generated by IcoMoon.io -->
<svg version="1.1" xmlns="http://www.w3.org/2000/svg" width="1024" height="1024" viewBox="0 0 1024 1024">
<title>camera1svg-1</title>
<g id="icomoon-ignore">
</g>
<path fill="none" stroke-linejoin="round" stroke-linecap="round" stroke-miterlimit="4" stroke-width="16" stroke="#000" d="M902.096 365.712v-146.576c0 0 0 0 0 0 0-53.758-43.497-97.356-97.216-97.52l-146.592-0.448M902.096 658.288v146.288c0 53.859-43.661 97.52-97.52 97.52v0h-146.288M365.712 121.168l-146.56 0.48c-53.749 0.146-97.264 43.751-97.264 97.52 0 0.011 0 0.023 0 0.034v-0.002 146.528M365.696 902.112h-146.288c-53.855-0.009-97.511-43.665-97.52-97.519v-146.289"></path>
<path fill="#000" d="M512 600c20 0 37.008-6.992 51.008-20.992s20.992-31.008 20.992-51.008c0-20-6.992-37.008-20.992-51.008s-31.008-20.992-51.008-20.992c-20 0-37.008 6.992-51.008 20.992s-20.992 31.008-20.992 51.008c0 20 6.992 37.008 20.992 51.008s31.008 20.992 51.008 20.992zM384 656c-8.8 0-16.32-3.136-22.592-9.392-5.806-5.614-9.411-13.474-9.411-22.176 0-0.152 0.001-0.304 0.003-0.455v0.023-192c0-8.8 3.136-16.32 9.408-22.592 5.604-5.806 13.455-9.411 22.149-9.411 0.156 0 0.312 0.001 0.467 0.003h50.377l29.6-32h96l29.6 32h50.4c8.8 0 16.336 3.136 22.608 9.408 6.256 6.256 9.392 13.792 9.392 22.592v192c0 8.8-3.136 16.336-9.392 22.608-5.615 5.797-13.471 9.395-22.167 9.395-0.155 0-0.31-0.001-0.464-0.003h-255.977z"></path>
</svg>
