<svg xmlns="http://www.w3.org/2000/svg" width="1024" height="1024"><path fill="none" stroke="#000" stroke-linecap="round" stroke-linejoin="round" stroke-width="16" d="M902.096 365.712V219.136s0 0 0 0c0-53.758-43.497-97.356-97.216-97.52l-146.592-.448m243.808 537.12v146.288c0 53.859-43.661 97.52-97.52 97.52v0H658.288M365.712 121.168l-146.56.48c-53.749.146-97.264 43.751-97.264 97.52v.034-.002 146.528m243.808 536.384H219.408c-53.855-.009-97.511-43.665-97.52-97.519V658.304"/><path d="M512 600c20 0 37.008-6.992 51.008-20.992S584 548 584 528c0-20-6.992-37.008-20.992-51.008S532 456 512 456c-20 0-37.008 6.992-51.008 20.992S440 508 440 528c0 20 6.992 37.008 20.992 51.008S492 600 512 600zm-128 56c-8.8 0-16.32-3.136-22.592-9.392-5.806-5.614-9.411-13.474-9.411-22.176 0-.152.001-.304.003-.455V624 432c0-8.8 3.136-16.32 9.408-22.592 5.604-5.806 13.455-9.411 22.149-9.411.156 0 .312.001.467.003h50.377l29.6-32h96l29.6 32h50.4c8.8 0 16.336 3.136 22.608 9.408 6.256 6.256 9.392 13.792 9.392 22.592v192c0 8.8-3.136 16.336-9.392 22.608-5.615 5.797-13.471 9.395-22.167 9.395-.155 0-.31-.001-.464-.003H384.001z"/></svg>